<?xml version="1.0" encoding="iso-8859-1"?>
<!-- Generator: Adobe Illustrator 19.2.1, SVG Export Plug-In . SVG Version: 6.00 Build 0)  -->
<svg version="1.1" id="Layer_4" xmlns="http://www.w3.org/2000/svg" xmlns:xlink="http://www.w3.org/1999/xlink" x="0px" y="0px"
	 viewBox="0 0 960 560" style="enable-background:new 0 0 960 560;" xml:space="preserve">
<path d="M653.694,263.737c-24.291,0-46.967,6.904-66.186,18.846l-40.081-50.122l6.698-17.66l-0.061-0.196
	c6.613-0.936,17.113-2.843,24.049-6.192c10.783-5.207,16.05-13.958,16.05-13.958c2.406-2.682,1.395-6.941-1.959-8.256
	c0,0-3.288-0.82-6.974-0.668c0,0-49.393,3.565-92.78,3.798c-1.179,0.006-3.841,0.479-4.537,0.843l-3.681,2.199
	c-2.115,1.547-1.918,5.419,0.342,6.744c6.65,5.544,17.808,8.9,21.962,10.559c4.19,1.673,20.42,5.327,22.406,5.327
	c0.145,0,0.378,0,0.669,0l-0.454,0.441l-2.842,8.003l-174.77-0.363l13.384-44.287l-10.098-17.551l8.699-9.653L405,151.346V137
	h-48.581l-23.188,24.89l11.523,19.323l-35.941,98.621c-17.312-8.999-36.981-14.069-57.841-14.069
	c-69.36,0-125.587,56.238-125.587,125.598s56.227,125.592,125.587,125.592S376.56,460.73,376.56,391.37
	c0-40.299-18.984-76.159-48.493-99.139l5.263-14.62c10.106,11.361,108.519,122.013,124.834,140.899
	c-6.443,14.214,10.928,23.144,14.865,22.119c4.011,14.916,8.135,32.371,8.135,32.371H474v9.412l28.005-1.27L501.163,472h-8.69
	c0,0-2.839-14.889-6.366-31.673c8.122-5.049,9.878-10.686,9.878-10.686l36.79-6.337c14.834,52.828,63.352,91.585,120.919,91.585
	c69.36,0,125.587-56.216,125.587-125.576S723.054,263.737,653.694,263.737z M352.544,391.373
	c0,55.931-45.341,101.272-101.272,101.272C195.341,492.645,150,447.304,150,391.373s45.341-101.272,101.272-101.272
	c18.257,0,35.383,4.833,50.175,13.286c-8.257,38.942-37.789,65.116-50.474,72.454c-0.049,0.041-0.085,0.081-0.132,0.122
	c-6.633,0.846-11.764,6.499-11.764,13.362c0,7.447,6.037,13.483,13.483,13.483s13.483-6.037,13.483-13.483
	c0-0.542-0.041-1.073-0.103-1.599c9.114-4.01,45.62-38.752,53.669-69.67c0.102-0.391,0.197-0.769,0.291-1.147
	C339.969,335.413,352.544,361.923,352.544,391.373z M473.374,384.168L471.163,370h5.943l-0.943-8H452.52l0.643,8h5.943l1.416,15.263
	l-118.33-132.268l2.819-7.83l174.889-0.584l0.935,0.419h-1.361L473.374,384.168z M528.83,402.817l-38.327,3.873l49.166-149.286
	l-0.033-0.16l0.253,0.16l31.178,37.349c-26.326,23.021-42.959,56.852-42.959,94.571C528.107,393.883,528.357,398.384,528.83,402.817
	z M552.721,389.324c0-29.417,12.547-55.9,32.576-74.402l54.749,70.341l-86.874,13.613
	C552.879,395.731,552.721,392.546,552.721,389.324z M653.994,490.596c-45.684,0-84.298-30.252-96.915-71.814l90.764-16.345
	c2.339,1.629,5.177,2.591,8.243,2.591c7.979,0,14.447-6.468,14.447-14.447c0-7.946-6.417-14.39-14.351-14.443l-54.735-73.405
	c15.319-9.316,33.306-14.682,52.545-14.682c55.931,0,101.272,45.341,101.272,101.272S709.925,490.596,653.994,490.596z"/>
</svg>
