<?xml version="1.0" encoding="iso-8859-1"?>
<!-- Generator: Adobe Illustrator 19.2.1, SVG Export Plug-In . SVG Version: 6.00 Build 0)  -->
<svg version="1.1" xmlns="http://www.w3.org/2000/svg" xmlns:xlink="http://www.w3.org/1999/xlink" x="0px" y="0px"
	 viewBox="0 0 1280 800" style="enable-background:new 0 0 1280 800;" xml:space="preserve">
<g id="Layer_1">
	<path d="M593.755,180.083c36.483-8.451,168.121,75.625,168.656,82.281c0,11.508-0.362,149.433-0.362,149.231l-30.495-4.523
		L720.417,287.27l-33.324-6.46c0,0,43.329,113.652,18.419,162.815c-0.75,1.48,61.167,248.96,61.167,248.96l-40.947,29.989
		l-88.237-227.802l-39.793,42.1l-57.095,172.438l-54.788-20.185l50.174-179.935l55.941-100.348l-22.492-76.126l-23.069,29.989
		l-106.692,35.756l-16.148-24.222l98.618-65.169C534.171,255.657,556.825,188.638,593.755,180.083z"/>
	<circle cx="566.423" cy="124.22" r="46.793"/>
</g>
<g id="Layer_2">
</g>
</svg>
