<?xml version="1.0" encoding="iso-8859-1"?>
<!-- Generator: Adobe Illustrator 19.2.1, SVG Export Plug-In . SVG Version: 6.00 Build 0)  -->
<svg version="1.1" xmlns="http://www.w3.org/2000/svg" xmlns:xlink="http://www.w3.org/1999/xlink" x="0px" y="0px"
	 viewBox="0 0 1280 800" style="enable-background:new 0 0 1280 800;" xml:space="preserve">
<g id="Layer_1" style="display:none;">
	
		<image style="display:inline;overflow:visible;opacity:0.34;" width="2880" height="1800" xlink:href="../Desktop/Screen Shot 2016-06-19 at 6.10.57 PM.png"  transform="matrix(0.3502 0 0 0.3502 157.3014 106.9716)">
	</image>
</g>
<g id="Layer_2">
	<g>
		<path d="M678.873,135.407c-221.467-5.199-211.65,194.628-211.65,194.628s101.662-0.594,115.812-0.594
			c2.173-14.883,4.457-38.277,18.472-54.213c33.69-38.308,111.378-23.219,126.212-10.138c8.086,7.13,34.584,19.438,15.067,66.769
			c-24.224,58.745-86.901,76.158-120.541,127.941c-5.113,7.87-8.382,17.851-12.214,27.674C600.82,511.09,599.533,569,599.533,569
			h102.693c0,0-2.141-60.489,24.034-88.013c21.806-22.93,61.502-45.068,96.322-80.987c33.751-34.816,37.49-57.118,39.707-70.065
			C881.24,219.223,801.374,138.283,678.873,135.407z"/>
		<circle cx="652.031" cy="677.677" r="58.192"/>
	</g>
</g>
</svg>
