<?xml version="1.0" encoding="iso-8859-1"?>
<!-- Generator: Adobe Illustrator 19.2.1, SVG Export Plug-In . SVG Version: 6.00 Build 0)  -->
<svg version="1.1" xmlns="http://www.w3.org/2000/svg" xmlns:xlink="http://www.w3.org/1999/xlink" x="0px" y="0px"
	 viewBox="0 0 1280 800" style="enable-background:new 0 0 1280 800;" xml:space="preserve">
<g id="Layer_1">
	
		<image style="display:none;overflow:visible;" width="958" height="1169" xlink:href="86B61750C632D30B.jpg"  transform="matrix(0.6869 0 0 0.6869 331.9384 0)">
	</image>
	<path style="display:none;fill:#C4C4C4;" d="M368-156c0,0,24-74,92-76s434,0,434,0s84-10,96,76"/>
	<path d="M934.114,695.979l-19.406-37.356h-29.743l-14.631-27.033l29.481,0.025l-18.099-33.521h-29.51l-11.538-21.319l29.225,0.029
		l-18.876-32.059h-27.684l-6.973-12.883h98.827l-0.748-52.894l-7.592-11.125l9.9-82.248c0,0-21.105-166.019-30.034-227.383
		c-9.981-68.592-53.122-66.059-53.122-66.059c-4.592-0.101-70.863-0.659-142.006-0.877c5.078-2.159,9.789-5.229,14.324-9.761
		c8.838-8.831,3.926-20.235,3.926-20.235l97.559-0.324c0,0,0,4.252,0,6.415c0,2.164,0.802,9.253,9.658,9.312
		c10.329,0.069,9.977-7.4,9.967-9.363s0-27.319,0-27.319l-312.353-0.09c0,0-0.12,24.34-0.045,27.331
		c0.066,2.621,0.223,9.646,9.772,9.742c10.19,0.038,9.565-7.599,9.665-9.363s0.213-6.643,0.213-6.643l95.76,0.297
		c0,0-4.43,9.868,2.973,18.728c4.123,4.935,9.703,8.626,14.565,11.188c-59.265-0.037-113.751,0.279-130.06,1.417
		c-39.734,3.39-58.245,37.293-61.906,51.193c-0.814,3.933-29.418,233.447-29.418,233.447l9.568,92.312l-6.744,9.352v52.894
		l94.932,0.014l-6.995,12.925h-29.339l-17.522,31.668l29.706,0.029l-11.719,21.653h-29.876l-17.663,33.13l29.595,0.025
		l-14.815,27.374h-29.938l-21.503,36.904l31.453,0.027l-11.013,20.349h29.75l10.999-20.323l410.341,0.35l10.81,19.974h29.75
		l-10.796-19.948L934.114,695.979z M870.604,184.488l15.368,149.108H687.629l0.004-161.167L870.604,184.488z M871.613,424.252
		c0,11.603-9.406,21.009-21.009,21.009c-8.405,0-15.637-4.948-18.996-12.079c-3.359,7.131-10.59,12.079-18.996,12.079
		c-11.603,0-21.009-9.406-21.009-21.009c0-11.603,9.406-21.009,21.009-21.009c8.405,0,15.637,4.948,18.996,12.079
		c3.359-7.131,10.59-12.079,18.996-12.079C862.207,403.243,871.613,412.649,871.613,424.252z M670.368,64.335
		c6.62,0,11.987,3.175,11.987,7.091s-5.367,7.091-11.987,7.091c-6.62,0-11.987-3.175-11.987-7.091S663.748,64.335,670.368,64.335z
		 M549.796,103.686h239.749l-0.327,54.701H549.796V103.686z M473.549,186.656l178.326-14.299v161.239H456.094L473.549,186.656z
		 M491.925,404.245c8.405,0,15.637,4.948,18.996,12.079c3.359-7.131,10.59-12.079,18.996-12.079
		c11.603,0,21.009,9.406,21.009,21.009c0,11.603-9.406,21.009-21.009,21.009c-8.405,0-15.637-4.948-18.996-12.079
		c-3.359,7.131-10.59,12.079-18.996,12.079c-11.603,0-21.009-9.406-21.009-21.009C470.916,413.651,480.322,404.245,491.925,404.245z
		 M474.433,474.818h397.179v14.438H474.433V474.818z M786.608,531.857l6.975,12.887H546.697l6.993-12.921L786.608,531.857z
		 M529.527,576.47l281.375,0.275l11.554,21.348H517.824L529.527,576.47z M485.065,658.623l14.801-27.349l340.704,0.29l14.644,27.058
		H485.065z"/>
</g>
<g id="Layer_2">
</g>
</svg>
