<?xml version="1.0" encoding="iso-8859-1"?>
<!-- Generator: Adobe Illustrator 19.2.1, SVG Export Plug-In . SVG Version: 6.00 Build 0)  -->
<svg version="1.1" xmlns="http://www.w3.org/2000/svg" xmlns:xlink="http://www.w3.org/1999/xlink" x="0px" y="0px"
	 viewBox="0 0 1280 800" style="enable-background:new 0 0 1280 800;" xml:space="preserve">
<g id="Layer_1" style="display:none;">
	
		<image style="display:inline;overflow:visible;opacity:0.52;" width="2880" height="1800" xlink:href="../Desktop/Screen Shot 2016-06-19 at 6.35.06 PM.png"  transform="matrix(0.4298 0 0 0.4298 6 69.3898)">
	</image>
</g>
<g id="Layer_2">
	<rect x="432.244" y="89.699" width="414.121" height="478.633"/>
	<path d="M535.239,584h-18.146c-10.015,0-18.577,6.775-21.68,15.77c-3.235-8.752-11.678-14.77-21.519-14.77h-18.146
		C443.137,585,433,595.138,433,607.748v79.565c0,12.61,10.137,22.687,22.747,22.687h18.146c10.015,0,18.577-6.275,21.68-15.27
		c3.235,8.752,11.678,15.27,21.519,15.27h18.146c12.61,0,22.761-10.546,22.761-23.156v-79.565C558,594.669,547.849,584,535.239,584z
		"/>
	<path d="M824.239,584h-18.146c-10.015,0-18.577,6.775-21.68,15.77c-3.235-8.752-11.678-14.77-21.519-14.77h-18.146
		C732.137,585,722,595.138,722,607.748v79.565c0,12.61,10.137,22.687,22.747,22.687h18.146c10.015,0,18.577-6.275,21.68-15.27
		c3.235,8.752,11.678,15.27,21.519,15.27h18.146c12.61,0,22.761-10.546,22.761-23.156v-79.565C847,594.669,836.849,584,824.239,584z
		"/>
</g>
</svg>
