<?xml version="1.0" encoding="iso-8859-1"?>
<!-- Generator: Adobe Illustrator 19.2.1, SVG Export Plug-In . SVG Version: 6.00 Build 0)  -->
<svg version="1.1" id="lane-bike" xmlns="http://www.w3.org/2000/svg" xmlns:xlink="http://www.w3.org/1999/xlink" x="0px" y="0px"
	 viewBox="0 0 25 25" style="enable-background:new 0 0 25 25;" xml:space="preserve">
<path d="M19.589,10.262c-0.821-0.001-1.627,0.228-2.324,0.662l-1.407-1.76l0.235-0.62V8.537c0.29-0.034,0.575-0.107,0.845-0.218
	c0.228-0.111,0.422-0.28,0.563-0.491c0.067-0.075,0.06-0.19-0.015-0.257c-0.016-0.014-0.034-0.025-0.054-0.033
	c-0.08-0.018-0.162-0.026-0.245-0.023c0,0-1.735,0.125-3.258,0.134c-0.054,0.002-0.108,0.012-0.16,0.03L13.64,7.757
	c-0.063,0.055-0.069,0.15-0.014,0.213c0.008,0.009,0.017,0.017,0.026,0.024c0.237,0.162,0.497,0.287,0.771,0.371
	c0.257,0.081,0.52,0.144,0.787,0.187h0.024l-0.016,0.016l-0.1,0.281L8.981,8.835L9.45,7.278L9.095,6.662l0.306-0.339l1.456-0.009
	v-0.5H9.151l-0.815,0.87l0.405,0.678l-1.262,3.465c-2.168-1.132-4.843-0.292-5.975,1.876c-1.132,2.169-0.292,4.845,1.876,5.977
	s4.843,0.292,5.975-1.876c0.989-1.895,0.484-4.226-1.2-5.542L8.34,10.75c0.355,0.4,3.81,4.286,4.383,4.949
	c-0.105,0.307,0.058,0.641,0.365,0.746c0.051,0.017,0.104,0.028,0.158,0.031c0.141,0.524,0.286,1.137,0.286,1.137H13.28v0.331
	l0.984-0.045l-0.03-0.321h-0.306c0,0-0.1-0.523-0.224-1.113c0.154-0.083,0.276-0.215,0.347-0.376l1.291-0.223
	c0.659,2.346,3.094,3.713,5.439,3.055c2.345-0.659,3.712-3.095,3.054-5.44C23.3,11.578,21.565,10.263,19.589,10.262z M9.015,14.745
	c0.001,1.964-1.59,3.556-3.554,3.557s-3.555-1.591-3.555-3.555c-0.001-1.964,1.59-3.556,3.554-3.557c0.616,0,1.222,0.16,1.758,0.465
	c-0.244,1.044-0.879,1.954-1.773,2.545l0,0c-0.259,0.033-0.443,0.27-0.41,0.53c0.033,0.259,0.27,0.443,0.53,0.41
	c0.236-0.03,0.414-0.231,0.413-0.47c0.001-0.019,0.001-0.037,0-0.056c0.861-0.606,1.518-1.459,1.885-2.447l0.01-0.04
	C8.604,12.801,9.018,13.751,9.015,14.745z M13.258,14.492l-0.078-0.5h0.209l-0.033-0.281h-0.832l0.023,0.281h0.209l0.05,0.536
	L8.652,9.882l0.1-0.275l6.141-0.021l0.028,0.018h-0.045L13.258,14.492z M15.205,15.148l-1.346,0.136l1.727-5.244v-0.005l0.009,0.006
	l1.099,1.312c-0.96,0.836-1.51,2.048-1.508,3.322C15.183,14.832,15.19,14.99,15.205,15.148L15.205,15.148z M16.044,14.674
	c-0.001-0.993,0.413-1.942,1.144-2.615l1.923,2.471l-3.05,0.479c-0.011-0.11-0.017-0.222-0.017-0.332V14.674z M19.601,18.232
	c-1.566,0-2.947-1.024-3.403-2.523l3.187-0.574c0.23,0.16,0.546,0.103,0.706-0.127s0.103-0.546-0.127-0.706
	c-0.084-0.059-0.184-0.09-0.287-0.091l-1.922-2.579c1.679-1.02,3.866-0.485,4.886,1.195c1.019,1.68,0.484,3.868-1.195,4.887
	c-0.557,0.338-1.196,0.517-1.848,0.517L19.601,18.232z"/>
</svg>
