<?xml version="1.0" encoding="iso-8859-1"?>
<!-- Generator: Adobe Illustrator 19.2.1, SVG Export Plug-In . SVG Version: 6.00 Build 0)  -->
<svg version="1.1" id="lane-bus" xmlns="http://www.w3.org/2000/svg" xmlns:xlink="http://www.w3.org/1999/xlink" x="0px" y="0px"
	 viewBox="0 0 25 25" style="enable-background:new 0 0 25 25;" xml:space="preserve">
<path d="M11.307,1.001C8.509,0.999,5.724,1,4.951,1C2.96,1,2.329,3.508,2.201,4
	C2.154,4.184,1,14.5,1,14.5l0.25,4L1,19.5V22h2v2h3.5v-2H18v2h4v-2h2v-2.5l-0.25-1l0.25-4c0,0-1.221-10.18-1.299-10.5
	c-0.122-0.5-0.765-3-2.75-3c-0.758,0-5.399,0.008-6.567,0.004 M22,5.5l0.701,7.5H13V5L22,5.5z M21.886,16.698
	c0,0.547-0.444,0.99-0.992,0.99c-0.397,0-0.738-0.233-0.897-0.569c-0.158,0.337-0.5,0.569-0.897,0.569
	c-0.548,0-0.992-0.443-0.992-0.99s0.444-0.99,0.992-0.99c0.397,0,0.738,0.233,0.897,0.569c0.158-0.337,0.5-0.569,0.897-0.569
	C21.442,15.708,21.886,16.151,21.886,16.698z M7,2h11v2H7V2z M3,5.5L12,5v8H2.201L3,5.5z M3.957,15.755
	c0.397,0,0.738,0.233,0.897,0.569c0.158-0.337,0.5-0.569,0.897-0.569c0.548,0,0.992,0.443,0.992,0.99s-0.444,0.99-0.992,0.99
	c-0.397,0-0.738-0.233-0.897-0.569c-0.158,0.337-0.5,0.569-0.897,0.569c-0.548,0-0.992-0.443-0.992-0.99S3.411,15.755,3.957,15.755z
	 M3,19h19v0.5H3V19z"/>
</svg>
