<?xml version="1.0" encoding="iso-8859-1"?>
<!-- Generator: Adobe Illustrator 19.2.1, SVG Export Plug-In . SVG Version: 6.00 Build 0)  -->
<svg version="1.1" id="lane-pedestrian" xmlns="http://www.w3.org/2000/svg" xmlns:xlink="http://www.w3.org/1999/xlink" x="0px" y="0px"
	 viewBox="0 0 25 25" style="enable-background:new 0 0 25 25;" xml:space="preserve">
<path d="M12.452,4.66c1.301-0.301,5.994,2.696,6.013,2.933c0,0.41-0.013,5.327-0.013,5.32l-1.087-0.161l-0.397-4.271l-1.188-0.23
	c0,0,1.545,4.052,0.657,5.804c-0.027,0.053,2.181,8.876,2.181,8.876L17.157,24l-3.146-8.121l-1.419,1.501l-2.035,6.148l-1.953-0.72
	l1.789-6.415l1.994-3.577l-0.802-2.714l-0.822,1.069l-3.804,1.275l-0.576-0.864l3.516-2.323C10.328,7.354,11.135,4.965,12.452,4.66z
	"/>
<path d="M11.5,1c0.921,0,1.646,0.747,1.646,1.668s-0.747,1.668-1.668,1.668S9.81,3.589,9.81,2.668S10.579,1,11.5,1z"/>
</svg>
