<?xml version="1.0" encoding="iso-8859-1"?>
<!-- Generator: Adobe Illustrator 19.2.1, SVG Export Plug-In . SVG Version: 6.00 Build 0)  -->
<svg version="1.1" id="lane-train" xmlns="http://www.w3.org/2000/svg" xmlns:xlink="http://www.w3.org/1999/xlink" x="0px" y="0px"
	 viewBox="0 0 25 25" style="enable-background:new 0 0 25 25;" xml:space="preserve">
<path d="M21.52,23.322l-0.66-1.271h-1.012l-0.498-0.92l1.003,0.001l-0.616-1.141h-1.004l-0.393-0.725l0.994,0.001l-0.642-1.091
	H17.75l-0.237-0.438h3.362l-0.025-1.8l-0.258-0.379l0.337-2.798c0,0-0.718-5.649-1.022-7.736C19.568,2.691,18.1,2.777,18.1,2.777
	c-0.156-0.003-2.411-0.022-4.832-0.03c0.173-0.073,0.333-0.178,0.487-0.332c0.301-0.3,0.134-0.688,0.134-0.688l3.319-0.011
	c0,0,0,0.145,0,0.218c0,0.074,0.027,0.315,0.329,0.317c0.351,0.002,0.339-0.252,0.339-0.319s0-0.93,0-0.93L7.249,1
	c0,0-0.004,0.828-0.002,0.93C7.25,2.019,7.255,2.258,7.58,2.261c0.347,0.001,0.325-0.259,0.329-0.319
	c0.004-0.06,0.007-0.226,0.007-0.226l3.258,0.01c0,0-0.151,0.336,0.101,0.637c0.14,0.168,0.33,0.293,0.496,0.381
	c-2.016-0.001-3.87,0.009-4.425,0.048C5.994,2.908,5.364,4.062,5.24,4.535c-0.028,0.134-1.001,7.943-1.001,7.943l0.326,3.141
	l-0.229,0.318v1.8h3.23l-0.238,0.44H6.329l-0.596,1.077l1.011,0.001l-0.399,0.737H5.328l-0.601,1.127l1.007,0.001L5.23,22.051H4.211
	L3.48,23.307l1.07,0.001L4.175,24h1.012l0.374-0.691l13.961,0.012L19.891,24h1.012l-0.367-0.679L21.52,23.322z M19.36,5.919
	l0.523,5.073h-6.748V5.508L19.36,5.919z M19.394,14.077c0,0.395-0.32,0.715-0.715,0.715c-0.286,0-0.532-0.168-0.646-0.411
	c-0.114,0.243-0.36,0.411-0.646,0.411c-0.395,0-0.715-0.32-0.715-0.715s0.32-0.715,0.715-0.715c0.286,0,0.532,0.168,0.646,0.411
	c0.114-0.243,0.36-0.411,0.646-0.411C19.074,13.362,19.394,13.682,19.394,14.077z M12.547,1.831c0.225,0,0.408,0.108,0.408,0.241
	s-0.183,0.241-0.408,0.241s-0.408-0.108-0.408-0.241S12.322,1.831,12.547,1.831z M8.444,3.17h8.157L16.59,5.031H8.444V3.17z
	 M5.85,5.993l6.067-0.487v5.486H5.256L5.85,5.993z M6.475,13.396c0.286,0,0.532,0.168,0.646,0.411
	c0.114-0.243,0.36-0.411,0.646-0.411c0.395,0,0.715,0.32,0.715,0.715s-0.32,0.715-0.715,0.715c-0.286,0-0.532-0.168-0.646-0.411
	c-0.114,0.243-0.36,0.411-0.646,0.411c-0.395,0-0.715-0.32-0.715-0.715S6.081,13.396,6.475,13.396z M5.88,15.797h13.514v0.491H5.88
	V15.797z M16.502,17.738l0.237,0.438h-8.4l0.238-0.44L16.502,17.738z M7.755,19.256l9.573,0.009l0.393,0.726H7.357L7.755,19.256z
	 M6.242,22.051l0.504-0.931l11.592,0.01l0.498,0.921H6.242L6.242,22.051z"/>
</svg>
