<?xml version="1.0" encoding="iso-8859-1"?>
<!-- Generator: Adobe Illustrator 19.2.1, SVG Export Plug-In . SVG Version: 6.00 Build 0)  -->
<svg version="1.1" id="lane-train" xmlns="http://www.w3.org/2000/svg" xmlns:xlink="http://www.w3.org/1999/xlink" x="0px" y="0px"
	 viewBox="0 0 25 25" style="enable-background:new 0 0 25 25;" xml:space="preserve">
<path d="M21.557,23.379L20.754,22h-1.009l-0.567-1h1.076l-0.511-1.004L18.611,20l-0.426-0.751l1.143,0.001l-0.574-1h-1.125
	l-0.435-0.75h3.81V16l-0.5-0.5l0.5-3c0,0-0.392-5.043-1-7.5c-0.494-1.997-0.997-2.375-2-2.375c-0.455,0-2.329,0.008-4.75,0
	c0.252-0.059,0.375-0.124,0.5-0.25C14.126,2,13.629,1.5,13.629,1.5s3.692,0,3.869,0c0,0.372,0.009,0.5,0.256,0.5
	c0.244,0,0.244-0.128,0.244-0.5c0-0.067,0-0.5,0-0.5h-11c0,0-0.002,0.398,0,0.5C6.996,1.875,7.003,2,7.254,2s0.244-0.12,0.244-0.5
	c0.119,0.002,3.881,0,3.881,0s-0.494,0.504-0.125,0.875c0.13,0.131,0.257,0.198,0.5,0.25c-2.016-0.001-3.743,0-4.75,0
	c-1.01,0-1.502,0.378-2,2.375c-0.339,1.361-1.006,7.5-1.006,7.5l0.506,3l-0.5,0.5l-0.006,1.5H7.81l-0.43,0.75H6.254l-0.517,1.004
	l1.074,0.001l-0.418,0.737H5.332L4.754,21h1.067l-0.567,1h-1l-0.81,1.376h1.037L4.127,24l1.375-0.002l0.295-0.625l13.413,0.003
	l0.293,0.622L20.879,24l-0.375-0.625L21.557,23.379z M19.004,5.75l0.75,5.25h-6.75V5.5L19.004,5.75z M19.398,14.077
	c0,0.395-0.32,0.715-0.715,0.715c-0.286,0-0.532-0.168-0.646-0.411c-0.114,0.243-0.36,0.411-0.646,0.411
	c-0.395,0-0.715-0.32-0.715-0.715s0.32-0.715,0.715-0.715c0.286,0,0.532,0.168,0.646,0.411c0.114-0.243,0.36-0.411,0.646-0.411
	C19.078,13.362,19.398,13.682,19.398,14.077z M12.504,1.75c0.225,0,0.408,0.108,0.408,0.241s-0.183,0.241-0.408,0.241
	s-0.408-0.108-0.408-0.241S12.279,1.75,12.504,1.75z M8.004,3.5h9V5h-9V3.5z M6.004,5.75l6-0.25V11H5.379L6.004,5.75z M6.479,13.396
	c0.286,0,0.532,0.168,0.646,0.411c0.114-0.243,0.36-0.411,0.646-0.411c0.395,0,0.715,0.32,0.715,0.715s-0.32,0.715-0.715,0.715
	c-0.286,0-0.532-0.168-0.646-0.411c-0.114,0.243-0.36,0.411-0.646,0.411c-0.395,0-0.715-0.32-0.715-0.715S6.085,13.396,6.479,13.396
	z M6.004,16h13v0.5h-13C6.004,16.5,6.004,16,6.004,16z M16.442,17.5l0.353,0.75H8.211l0.353-0.75H16.442z M7.737,19.256l9.53-0.006
	L17.629,20H7.386L7.737,19.256z M6.444,22l0.471-1h11.176l0.471,1H6.444z"/>
</svg>
