<?xml version="1.0" encoding="iso-8859-1"?>
<!-- Generator: Adobe Illustrator 19.2.1, SVG Export Plug-In . SVG Version: 6.00 Build 0)  -->
<svg version="1.1" id="lane-tram-other" xmlns="http://www.w3.org/2000/svg" xmlns:xlink="http://www.w3.org/1999/xlink" x="0px" y="0px"
	 viewBox="0 0 25 25" style="enable-background:new 0 0 25 25;" xml:space="preserve">
<path d="M20.128,12.625c0,0,0.15-6.626-0.125-7.625c-0.546-1.983-1.694-2.375-2-2.375c-0.455,0-2.329,0.008-4.75,0
	C14.176,2.059,14.987,1.5,14.987,1.5h2.51c0,0.372,0.009,0.5,0.256,0.5c0.244,0,0.244-0.128,0.244-0.5c0-0.067,0-0.5,0-0.5h-11
	c0,0-0.002,0.398,0,0.5C6.995,1.875,7.002,2,7.253,2c0.251,0,0.244-0.12,0.244-0.5C7.616,1.502,10.006,1.5,10.006,1.5
	s0.868,0.558,1.747,1.124c-2.016-0.001-3.743,0-4.75,0c-0.509,0-1.51,0.376-2,2.375C4.76,5.992,4.75,12.5,4.75,12.5l0.003,4
	c-0.003,0.827,0.67,1,1.497,1l1.559,0L4.12,24c0.239,0.004,1.154-0.032,1.375-0.002C5.512,23.997,8.563,17.5,8.563,17.5h2.228
	c0.107-0.006,0.211-0.016,0.322-0.016c0.111,0,0.215,0.01,0.323,0.016h5.005l3.054,6.498C19.653,23.985,20.705,24,20.872,24
	c0.108,0-3.678-6.5-3.678-6.5l1.432,0c0.828,0,1.5-0.047,1.5-0.875L20.128,12.625z M14.243,1.5l-1.75,1.125L10.743,1.5H14.243z
	 M10.993,3.5h3.01l-0.01,1h-3.01L10.993,3.5z M6.5,13h2.25v1.5c0,0-2.247,0.002-2.25-0.5C6.497,13.54,6.5,13,6.5,13z M18.5,14
	c0,0.495-2.25,0.5-2.25,0.5V13h2.25C18.5,13,18.5,13.609,18.5,14z M5.875,11L6,5h13l0.125,6H5.875z"/>
</svg>
