<?xml version="1.0" encoding="iso-8859-1"?>
<!-- Generator: Adobe Illustrator 19.2.1, SVG Export Plug-In . SVG Version: 6.00 Build 0)  -->
<svg version="1.1" id="lane-tram" xmlns="http://www.w3.org/2000/svg" xmlns:xlink="http://www.w3.org/1999/xlink" x="0px" y="0px"
	 viewBox="0 0 25 25" style="enable-background:new 0 0 25 25;" xml:space="preserve">
<path d="M20.003,3.989C20.003,3.443,19.56,3,19.014,3h-6.011l1.987-1.5h2.51c0,0.372,0.009,0.5,0.256,0.5C18,2,18,1.872,18,1.5
	C18,1.433,18,1,18,1H7c0,0-0.002,0.398,0,0.5C6.998,1.875,7.005,2,7.256,2C7.507,2,7.5,1.88,7.5,1.5
	C7.619,1.502,10.009,1.5,10.009,1.5L12.003,3H5.993C5.446,3,5.003,3.443,5.003,3.989v12.521c0,0.546,0.443,0.989,0.989,0.989l1.82,0
	L4.123,24c0.239,0.004,1.154-0.032,1.375-0.002C5.515,23.997,8.566,17.5,8.566,17.5h2.228c0.107-0.006,0.211-0.016,0.322-0.016
	c0.111,0,0.215,0.01,0.323,0.016h5.005l3.054,6.498C19.657,23.985,20.709,24,20.875,24c0.108,0-3.678-6.5-3.678-6.5l1.818,0
	c0.546,0,0.989-0.443,0.989-0.989V3.989z M14.246,1.5l-1.743,1.25L10.746,1.5H14.246z M10.996,3.5h3.01l-0.01,1h-3.01L10.996,3.5z
	 M6.003,13H8.5v1.5H7.006c-0.555,0-1.005-0.451-1.004-1.006L6.003,13z M18,14.5h-1.5V13H19v0.5C19,14.052,18.552,14.5,18,14.5z
	 M6.003,11V5.989C6.003,5.443,6.446,5,6.993,5h11.021c0.546,0,0.989,0.443,0.989,0.989V11H6.003z"/>
</svg>
