<?xml version="1.0" encoding="iso-8859-1"?>
<!-- Generator: Adobe Illustrator 19.2.1, SVG Export Plug-In . SVG Version: 6.00 Build 0)  -->
<svg version="1.1" id="lane-truck" xmlns="http://www.w3.org/2000/svg" xmlns:xlink="http://www.w3.org/1999/xlink" x="0px" y="0px"
	 viewBox="0 0 25 25" style="enable-background:new 0 0 25 25;" xml:space="preserve">
<path d="M4.818,1h15.34l0.015,17.747H4.818V1z"/>
<path d="M8.63,19.328H7.957c-0.371,0-0.689,0.251-0.804,0.585c-0.12-0.325-0.433-0.548-0.798-0.548H5.682
	c-0.468,0-0.843,0.376-0.843,0.843v2.95C4.839,23.626,5.215,24,5.682,24h0.673c0.371,0,0.689-0.233,0.804-0.566
	C7.279,23.758,7.592,24,7.957,24H8.63c0.468,0,0.844-0.391,0.844-0.859v-2.95C9.474,19.724,9.097,19.328,8.63,19.328z"/>
<path d="M19.345,19.328h-0.673c-0.371,0-0.689,0.251-0.804,0.585c-0.12-0.325-0.433-0.548-0.798-0.548h-0.673
	c-0.468,0-0.843,0.376-0.843,0.843v2.95c0,0.468,0.376,0.841,0.843,0.841h0.673c0.371,0,0.689-0.233,0.804-0.566
	C17.995,23.758,18.308,24,18.673,24h0.673c0.468,0,0.844-0.391,0.844-0.859v-2.95C20.189,19.724,19.813,19.328,19.345,19.328z"/>
</svg>
