<?xml version="1.0" encoding="iso-8859-1"?>
<!-- Generator: Adobe Illustrator 19.2.1, SVG Export Plug-In . SVG Version: 6.00 Build 0)  -->
<svg version="1.1" id="lane-truck" xmlns="http://www.w3.org/2000/svg" xmlns:xlink="http://www.w3.org/1999/xlink" x="0px" y="0px"
	 viewBox="0 0 25 25" style="enable-background:new 0 0 25 25;" xml:space="preserve">
<path d="M5,1h15v18H5V1z"/>
<path d="M19.149,19.5h-0.608c-0.361,0-0.677,0.197-0.789,0.522c-0.117-0.316-0.437-0.522-0.792-0.522h-0.608
	c-0.455,0-0.851,0.355-0.851,0.809v2.871c0,0.455,0.366,0.818,0.82,0.818h0.655c0.361,0,0.67-0.227,0.782-0.551
	C17.875,23.764,18.18,24,18.535,24h0.655c0.455,0,0.821-0.381,0.821-0.836v-2.871C20.01,19.838,19.604,19.5,19.149,19.5z"/>
<path d="M8.649,19.5H8.041c-0.361,0-0.677,0.197-0.789,0.522C7.135,19.706,6.815,19.5,6.46,19.5H5.851C5.396,19.5,5,19.855,5,20.309
	v2.871c0,0.455,0.366,0.818,0.82,0.818h0.655c0.361,0,0.67-0.227,0.782-0.551C7.375,23.764,7.68,24,8.035,24H8.69
	c0.455,0,0.821-0.381,0.821-0.836v-2.871C9.51,19.838,9.104,19.5,8.649,19.5z"/>
</svg>
