<?xml version="1.0" encoding="iso-8859-1"?>
<!-- Generator: Adobe Illustrator 19.2.1, SVG Export Plug-In . SVG Version: 6.00 Build 0)  -->
<svg version="1.1" id="lane-unknown" xmlns="http://www.w3.org/2000/svg" xmlns:xlink="http://www.w3.org/1999/xlink" x="0px"
	 y="0px" viewBox="0 0 25 25" style="enable-background:new 0 0 25 25;" xml:space="preserve">
<path d="M12.989,1.004C4.507,0.805,4.875,8.5,4.875,8.5s3.958,0,4.5,0c0.038-0.557,0.114-1.531,0.65-2.141
	c1.29-1.467,4.265-0.889,4.834-0.388c0.31,0.273,1.324,0.744,0.577,2.557c-0.928,2.25-3.328,2.917-4.616,4.9
	c-0.196,0.301-0.321,0.684-0.468,1.06C9.999,15.392,10,17.5,10,17.5h3.875c0,0-0.074-2.207,0.928-3.261
	c0.835-0.878,2.355-1.726,3.689-3.102c1.293-1.333,1.436-2.187,1.521-2.683C20.739,4.214,17.68,1.114,12.989,1.004z"/>
<path d="M11.961,19.542c1.21,0,2.229,0.998,2.229,2.229S13.192,24,11.961,24s-2.229-0.998-2.229-2.229S10.73,19.542,11.961,19.542z"
	/>
</svg>
