<svg id="left-slight_left-through" xmlns="http://www.w3.org/2000/svg" viewBox="0 0 25 25"><title>icons</title><line x1="18.1" y1="5.17" x2="18.11" y2="23" fill="none" stroke="#000" stroke-miterlimit="10" stroke-width="2.25"/><path d="M18.11,19.69c0-3.65-5.82-6.62-9.2-6.62" fill="none" stroke="#000" stroke-miterlimit="10" stroke-width="2.25"/><path d="M11.89,7.16S18.11,12.74,18.11,19" fill="none" stroke="#000" stroke-miterlimit="10" stroke-width="2.25"/><path d="M18.16,1.09a0.07,0.07,0,0,0-.12,0L15.26,5.36a0.42,0.42,0,0,0,.48.62l2.36-.81L20.47,6A0.42,0.42,0,0,0,21,5.37Z"/><path d="M4.83,13a0.07,0.07,0,0,0,0,.12L9.1,15.91a0.42,0.42,0,0,0,.62-0.48L8.91,13.07,9.72,10.7a0.42,0.42,0,0,0-.62-0.48Z"/><path d="M9.05,4.24A0.07,0.07,0,0,0,9,4.32l1,5a0.42,0.42,0,0,0,.78.1l1.1-2.24,2.25-1.1A0.42,0.42,0,0,0,14,5.28Z"/></svg>