<svg id="left-through" xmlns="http://www.w3.org/2000/svg" viewBox="0 0 25 25"><title>icons</title><line x1="17" y1="23" x2="17" y2="6.81" fill="none" stroke="#000" stroke-miterlimit="10" stroke-width="2.5"/><path d="M17,19c0-5.32-4.66-8.23-7.83-9.1" fill="none" stroke="#000" stroke-miterlimit="10" stroke-width="2.5"/><path d="M17.06,2.3a0.08,0.08,0,0,0-.13,0L13.85,7a0.47,0.47,0,0,0,.53.69L17,6.81l2.62,0.9A0.46,0.46,0,0,0,20.15,7Z"/><path d="M5,8.29a0.08,0.08,0,0,0,0,.12l3.38,4.51a0.47,0.47,0,0,0,.83-0.27L9.17,9.9l1.74-2.16A0.46,0.46,0,0,0,10.45,7Z"/></svg>