<svg id="reverse_left-left-slight_left-through" xmlns="http://www.w3.org/2000/svg" viewBox="0 0 25 25"><title>icons</title><line x1="19" y1="4" x2="19" y2="23" fill="none" stroke="#000" stroke-miterlimit="10" stroke-width="2"/><path d="M7.21,12h5.5A15.61,15.61,0,0,1,19,13" fill="none" stroke="#000" stroke-miterlimit="10" stroke-width="2"/><path d="M13.7,5.85S19,9.23,19,15" fill="none" stroke="#000" stroke-miterlimit="10" stroke-width="2"/><path d="M19.05,0.43a0.07,0.07,0,0,0-.1,0L16.49,4.18a0.37,0.37,0,0,0,.42.55L19,4l2.09,0.71a0.37,0.37,0,0,0,.42-0.54Z"/><path d="M11.2,3.28a0.07,0.07,0,0,0-.07.07l0.92,4.39a0.37,0.37,0,0,0,.68.09l1-2,2-1A0.37,0.37,0,0,0,15.6,4.2Z"/><path d="M3.68,11.95a0.07,0.07,0,0,0,0,.1L7.44,14.5A0.37,0.37,0,0,0,8,14.08L7.21,12,8,9.91a0.37,0.37,0,0,0-.54-0.42Z"/><path d="M10,23.06a0.07,0.07,0,0,0,.1,0l2.45-3.76a0.37,0.37,0,0,0-.42-0.55L10,19.48l-2.09-.71a0.37,0.37,0,0,0-.42.54Z"/><path d="M19,16c0-5.42-9-4.84-9,0l0,3.48" fill="none" stroke="#000" stroke-miterlimit="10" stroke-width="2"/></svg>