<svg id="reverse_left-through" xmlns="http://www.w3.org/2000/svg" viewBox="0 0 25 25"><title>icons</title><path d="M8.36,23a0.08,0.08,0,0,0,.13,0l3.08-4.72A0.47,0.47,0,0,0,11,17.56l-2.62.9-2.62-.9a0.46,0.46,0,0,0-.53.68Z"/><line x1="17" y1="23.19" x2="17" y2="6.08" fill="none" stroke="#000" stroke-miterlimit="10" stroke-width="2.5"/><path d="M17.06,1.57a0.08,0.08,0,0,0-.13,0L13.85,6.29a0.47,0.47,0,0,0,.53.69L17,6.08,19.62,7a0.46,0.46,0,0,0,.53-0.68Z"/><path d="M17,16c0-5-8.58-5.08-8.58,0v2.46" fill="none" stroke="#000" stroke-miterlimit="10" stroke-width="2.5"/></svg>