<svg id="sharp_left-through" xmlns="http://www.w3.org/2000/svg" viewBox="0 0 25 25"><title>icons</title><path d="M5.38,17.17a0.08,0.08,0,0,0,.09.09L11,16.1a0.47,0.47,0,0,0,.11-0.86L8.62,14,7.4,11.53a0.46,0.46,0,0,0-.86.11Z"/><line x1="17" y1="23.19" x2="17" y2="6.08" fill="none" stroke="#000" stroke-miterlimit="10" stroke-width="2.5"/><path d="M17.06,1.57a0.08,0.08,0,0,0-.13,0L13.85,6.29a0.47,0.47,0,0,0,.53.69L17,6.08,19.62,7a0.46,0.46,0,0,0,.53-0.68Z"/><path d="M17,15.65c0-4.75-5.12-5.25-8.38-1.63" fill="none" stroke="#000" stroke-miterlimit="10" stroke-width="2.5"/></svg>