<svg id="slight_left-through" xmlns="http://www.w3.org/2000/svg" viewBox="0 0 25 25"><title>icons</title><line x1="17" y1="23.19" x2="17" y2="6.08" fill="none" stroke="#000" stroke-miterlimit="10" stroke-width="2.5"/><path d="M17.06,1.57a0.08,0.08,0,0,0-.13,0L13.85,6.29a0.47,0.47,0,0,0,.53.69L17,6.08,19.62,7a0.46,0.46,0,0,0,.53-0.68Z"/><path d="M17,19c0-4.22-4.84-9.36-6.54-10.68" fill="none" stroke="#000" stroke-miterlimit="10" stroke-width="2.5"/><path d="M7.3,5.09a0.08,0.08,0,0,0-.09.09L8.37,10.7a0.47,0.47,0,0,0,.86.11l1.22-2.48,2.49-1.22a0.46,0.46,0,0,0-.11-0.86Z"/></svg>